{"title":"[MAR] Ithe Oshalala Mrityu - Drama x264 MP3 [TMB]","uid":8670935,"size":723277480,"categoryP":"video","categoryS":"movies","magnet":"?xt=urn:btih:f6433f8ddc2fa60a4735f311f547c989ca6df44b&amp;dn=%5BMAR%5D+Ithe+Oshalala+Mrityu+-+Drama+x264+MP3+%5BTMB%5D&amp;tr=udp%3A%2F%2Ftracker.openbittorrent.com%3A80&amp;tr=udp%3A%2F%2Fopen.demonii.com%3A1337&amp;tr=udp%3A%2F%2Ftracker.coppersurfer.tk%3A6969&amp;tr=udp%3A%2F%2Fexodus.desync.com%3A6969","seeders":0,"leechers":1,"uploader":"SJonam","files":2,"time":1373493736,"description":" &lt;a href=&quot;http://desibbrg.org/images/16358683858652693851.gif&quot; rel=&quot;nofollow&quot; target=&quot;_NEW&quot;&gt;http://desibbrg.org/images/16358683858652693851.gif&lt;/a&gt; &lt;a href=&quot;\nhttp://desibbrg.org/images/89851872459331933830.png&quot; rel=&quot;nofollow&quot; target=&quot;_NEW&quot;&gt;\nhttp://desibbrg.org/images/89851872459331933830.png&lt;/a&gt; &lt;a href=&quot;\nhttp://desibbrg.org/images/39713776388834237512.png&quot; rel=&quot;nofollow&quot; target=&quot;_NEW&quot;&gt;\nhttp://desibbrg.org/images/39713776388834237512.png&lt;/a&gt; &lt;a href=&quot;\nhttp://desibbrg.org/images/09997401521588940202.png&quot; rel=&quot;nofollow&quot; target=&quot;_NEW&quot;&gt;\nhttp://desibbrg.org/images/09997401521588940202.png&lt;/a&gt; &lt;a href=&quot;\nhttp://desibbrg.org/images/48455075715649651815.png&quot; rel=&quot;nofollow&quot; target=&quot;_NEW&quot;&gt;\nhttp://desibbrg.org/images/48455075715649651815.png&lt;/a&gt; &lt;a href=&quot;\nhttp://desibbrg.org/images/74781935186846308144.png&quot; rel=&quot;nofollow&quot; target=&quot;_NEW&quot;&gt;\nhttp://desibbrg.org/images/74781935186846308144.png&lt;/a&gt;\n\nCast n Crew - \nWriter:Vasant Kanetkar \nStarring: Dr. Kashinath Ghanekar, Sudha Karmarkar, Prabhakar Panshikar, Kiran Bhogale, Janhavi Panshikar\nDirector: Purushottam Darvhekar\n\nPlot - Ithe Oshalala Mrityu is a Marathi historical stage play. It revolves around the life of Aurangzeb and the Maratha period.\n\nMedia Info - \nGeneral\nComplete name                  : Ithe Oshalala Mrityu - Drama x264 MP3 [TMB].avi\nFormat                         : AVI\nFormat/Info                    : Audio Video Interleave\nFile size                      : 679 MiB\nDuration                       : 2h 23mn\nOverall bit rate               : 660 Kbps\nWriting application            : Lavf54.63.104\n\nVideo\nFormat                         : AVC\nFormat/Info                    : Advanced Video Codec\nFormat profile                 : &lt;a class=&quot;__cf_email__&quot; href=&quot;/cdn-cgi/l/email-protection&quot; data-cfemail=&quot;c78faea0af878bf4e9f7&quot;&gt;[email&amp;#160;protected]&lt;/a&gt;&lt;script cf-hash='f9e31' type=&quot;text/javascript&quot;&gt;\n/* &lt;![CDATA[ */!function(){try{var t=&quot;currentScript&quot;in document?document.currentScript:function(){for(var t=document.getElementsByTagName(&quot;script&quot;),e=t.length;e--;)if(t[e].getAttribute(&quot;cf-hash&quot;))return t[e]}();if(t&amp;&amp;t.previousSibling){var e,r,n,i,c=t.previousSibling,a=c.getAttribute(&quot;data-cfemail&quot;);if(a){for(e=&quot;&quot;,r=parseInt(a.substr(0,2),16),n=2;a.length-n;n+=2)i=parseInt(a.substr(n,2),16)^r,e+=String.fromCharCode(i);e=document.createTextNode(e),c.parentNode.replaceChild(e,c)}}}catch(u){}}();/* ]]&gt; */&lt;/script&gt;\nFormat settings, CABAC         : Yes\nFormat settings, ReFrames      : 1 frame\nCodec ID                       : H264\nDuration                       : 2h 23mn\nBit rate                       : 391 Kbps\nWidth                          : 620 pixels\nHeight                         : 480 pixels\nDisplay aspect ratio           : 1.292\nFrame rate mode                : Variable\nFrame rate                     : 25.000 fps\nColor space                    : YUV\nChroma subsampling             : 4:2:0\nBit depth                      : 8 bits\nScan type                      : Progressive\nBits/(Pixel*Frame)             : 0.053\nStream size                    : 403 MiB (59%)\nWriting library                : x264 core 129\n\nAudio\nFormat                         : MPEG Audio\nFormat version                 : Version 1\nFormat profile                 : Layer 3\nMode                           : Joint stereo\nMode extension                 : MS Stereo\nCodec ID                       : 55\nCodec ID/Hint                  : MP3\nDuration                       : 2h 23mn\nBit rate mode                  : Constant\nBit rate                       : 256 Kbps\nChannel(s)                     : 2 channels\nSampling rate                  : 44.1 KHz\nCompression mode               : Lossy\nStream size                    : 264 MiB (39%)\nAlignment                      : Aligned on interleaves\nInterleave, duration           : 26 ms (0.65 video frame)\nWriting library                : LAME3.99.5\n\n\nRipper : Manojvb\n\nSeeding will be very slow for first few hours ;)\n &lt;a href=&quot;\nhttp://desibbrg.org/images/48627592875446061657.gif&quot; rel=&quot;nofollow&quot; target=&quot;_NEW&quot;&gt;\nhttp://desibbrg.org/images/48627592875446061657.gif&lt;/a&gt;","torrent":{"xt":"urn:btih:f6433f8ddc2fa60a4735f311f547c989ca6df44b","amp;dn":"%5BMAR%5D+Ithe+Oshalala+Mrityu+-+Drama+x264+MP3+%5BTMB%5D","amp;tr":["udp%3A%2F%2Ftracker.openbittorrent.com%3A80","udp%3A%2F%2Fopen.demonii.com%3A1337","udp%3A%2F%2Ftracker.coppersurfer.tk%3A6969","udp%3A%2F%2Fexodus.desync.com%3A6969"],"infoHash":"f6433f8ddc2fa60a4735f311f547c989ca6df44b","infoHashBuffer":{"type":"Buffer","data":[246,67,63,141,220,47,166,10,71,53,243,17,245,71,201,137,202,109,244,75]},"announce":[],"urlList":[]}}